<svg id="svg" version="1.1" xmlns="http://www.w3.org/2000/svg" xmlns:xlink="http://www.w3.org/1999/xlink" width="400" height="400" viewBox="0, 0, 400,400"><g id="svgg"><path id="path0" d="M195.703 104.702 C 164.739 106.247,139.673 129.448,134.525 161.328 L 134.099 163.965 134.034 207.910 L 133.969 251.855 133.230 252.380 C 124.647 258.478,121.752 271.086,126.717 280.745 C 135.029 296.914,157.810 297.256,166.708 281.345 C 171.876 272.103,169.389 259.138,161.275 253.027 L 159.979 252.051 159.970 210.449 C 159.961 165.126,159.932 166.430,161.061 161.351 C 164.717 144.901,178.723 132.539,195.591 130.875 C 198.362 130.601,214.919 130.601,217.691 130.875 C 247.165 133.784,263.012 167.190,246.682 191.992 C 239.718 202.570,227.015 209.588,214.877 209.566 L 212.402 209.561 211.816 208.763 C 208.326 204.006,200.795 200.381,194.434 200.396 C 176.255 200.437,165.474 220.498,175.490 235.645 C 183.729 248.103,202.134 249.125,211.576 237.647 L 213.093 235.803 216.168 235.676 C 258.833 233.917,288.497 192.905,276.725 151.953 C 269.583 127.109,248.027 108.512,222.512 105.182 C 217.633 104.546,203.804 104.298,195.703 104.702 " stroke="none" fill="#fc9484" fill-rule="evenodd"></path><path id="path1" d="M197.119 104.632 C 197.415 104.677,197.898 104.677,198.193 104.632 C 198.489 104.587,198.247 104.551,197.656 104.551 C 197.065 104.551,196.824 104.587,197.119 104.632 M214.307 104.632 C 214.602 104.677,215.085 104.677,215.381 104.632 C 215.676 104.587,215.435 104.551,214.844 104.551 C 214.253 104.551,214.011 104.587,214.307 104.632 M222.705 105.213 C 222.893 105.262,223.201 105.262,223.389 105.213 C 223.577 105.164,223.423 105.123,223.047 105.123 C 222.671 105.123,222.517 105.164,222.705 105.213 M226.188 105.734 C 226.233 105.772,226.577 105.860,226.953 105.929 C 227.434 106.017,227.550 105.997,227.344 105.862 C 227.079 105.689,225.994 105.568,226.188 105.734 M183.398 106.454 C 183.184 106.599,183.263 106.617,183.691 106.521 C 184.410 106.361,184.565 106.249,184.066 106.253 C 183.860 106.255,183.560 106.345,183.398 106.454 M232.554 107.229 C 232.822 107.477,233.656 107.681,233.523 107.466 C 233.458 107.360,233.177 107.230,232.898 107.176 C 232.620 107.123,232.465 107.147,232.554 107.229 M174.072 109.489 C 173.723 109.642,173.438 109.806,173.438 109.854 C 173.438 109.998,174.602 109.545,174.719 109.356 C 174.849 109.145,174.868 109.141,174.072 109.489 M239.844 109.875 C 239.844 109.918,240.195 110.132,240.625 110.352 C 241.055 110.571,241.406 110.674,241.406 110.580 C 241.406 110.487,241.055 110.273,240.625 110.104 C 240.195 109.935,239.844 109.832,239.844 109.875 M172.607 110.096 C 172.419 110.145,172.266 110.269,172.266 110.373 C 172.266 110.481,172.452 110.464,172.705 110.332 C 173.438 109.951,173.411 109.886,172.607 110.096 M163.477 115.197 C 162.149 115.996,160.953 116.875,160.945 117.057 C 160.941 117.147,161.267 116.961,161.670 116.643 C 162.073 116.326,162.864 115.784,163.428 115.438 C 163.992 115.093,164.453 114.774,164.453 114.729 C 164.453 114.611,164.437 114.619,163.477 115.197 M248.828 114.728 C 248.828 114.767,249.048 114.943,249.316 115.119 C 249.585 115.295,249.805 115.363,249.805 115.270 C 249.805 115.178,249.585 115.002,249.316 114.879 C 249.048 114.757,248.828 114.689,248.828 114.728 M253.304 117.841 C 253.584 118.189,254.297 118.646,254.297 118.477 C 254.297 118.427,254.011 118.186,253.662 117.941 C 253.212 117.625,253.108 117.596,253.304 117.841 M256.445 120.390 C 256.445 120.440,256.731 120.682,257.080 120.926 C 257.530 121.242,257.634 121.271,257.438 121.027 C 257.158 120.679,256.445 120.221,256.445 120.390 M155.205 121.713 L 154.004 122.918 155.273 121.772 C 155.972 121.141,156.580 120.599,156.624 120.567 C 156.669 120.534,156.638 120.508,156.556 120.508 C 156.474 120.508,155.866 121.050,155.205 121.713 M257.813 121.545 C 257.813 121.579,258.098 121.865,258.447 122.180 L 259.082 122.754 258.508 122.119 C 257.974 121.527,257.813 121.395,257.813 121.545 M197.219 130.802 C 197.462 130.849,197.814 130.847,198.000 130.798 C 198.187 130.749,197.988 130.711,197.559 130.713 C 197.129 130.715,196.976 130.755,197.219 130.802 M215.383 130.802 C 215.626 130.849,215.978 130.847,216.164 130.798 C 216.351 130.749,216.152 130.711,215.723 130.713 C 215.293 130.715,215.140 130.755,215.383 130.802 M267.108 132.129 C 267.284 132.397,267.460 132.617,267.499 132.617 C 267.538 132.617,267.470 132.397,267.347 132.129 C 267.225 131.860,267.049 131.641,266.956 131.641 C 266.864 131.641,266.932 131.860,267.108 132.129 M189.160 131.975 C 188.945 132.027,188.682 132.158,188.574 132.267 C 188.330 132.515,189.267 132.265,189.541 132.009 C 189.643 131.914,189.687 131.846,189.639 131.859 C 189.590 131.871,189.375 131.924,189.160 131.975 M223.764 132.034 C 224.033 132.282,224.867 132.486,224.734 132.271 C 224.669 132.165,224.387 132.034,224.109 131.981 C 223.831 131.928,223.676 131.952,223.764 132.034 M185.612 133.165 C 184.422 133.649,184.371 133.817,185.525 133.448 C 186.074 133.272,186.523 133.057,186.523 132.971 C 186.523 132.780,186.601 132.763,185.612 133.165 M183.789 133.911 L 183.301 134.196 183.789 134.066 C 184.333 133.921,184.480 133.829,184.358 133.707 C 184.314 133.662,184.057 133.754,183.789 133.911 M228.818 133.767 C 228.920 133.862,229.224 133.998,229.492 134.068 L 229.980 134.196 229.492 133.902 C 228.948 133.574,228.520 133.488,228.818 133.767 M143.886 135.082 C 143.586 135.578,143.375 136.018,143.417 136.061 C 143.459 136.103,143.767 135.697,144.102 135.158 C 144.437 134.620,144.648 134.180,144.571 134.180 C 144.494 134.180,144.186 134.586,143.886 135.082 M182.324 134.560 C 181.895 134.763,181.657 134.936,181.797 134.945 C 182.074 134.962,183.203 134.422,183.203 134.272 C 183.203 134.144,183.200 134.145,182.324 134.560 M230.078 134.270 C 230.078 134.408,231.189 134.961,231.468 134.961 C 231.599 134.961,231.665 134.920,231.614 134.870 C 231.453 134.708,230.078 134.171,230.078 134.270 M269.381 135.435 C 269.622 135.804,269.845 136.079,269.877 136.048 C 269.974 135.951,269.248 134.768,269.090 134.767 C 269.008 134.766,269.139 135.067,269.381 135.435 M179.693 135.930 C 179.535 136.030,179.454 136.159,179.512 136.218 C 179.571 136.276,179.788 136.196,179.995 136.039 C 180.407 135.728,180.156 135.637,179.693 135.930 M270.126 136.735 C 270.246 136.960,270.383 137.104,270.431 137.056 C 270.567 136.920,270.290 136.328,270.089 136.328 C 269.990 136.328,270.006 136.511,270.126 136.735 M142.632 137.158 C 142.272 137.625,142.165 137.891,142.340 137.891 C 142.436 137.891,142.616 137.671,142.738 137.402 C 142.979 136.874,142.933 136.769,142.632 137.158 M270.733 137.781 C 270.858 138.056,271.038 138.281,271.132 138.281 C 271.332 138.281,270.987 137.578,270.701 137.401 C 270.589 137.332,270.603 137.495,270.733 137.781 M141.851 138.525 C 141.490 138.992,141.384 139.258,141.559 139.258 C 141.655 139.258,141.834 139.038,141.957 138.770 C 142.197 138.241,142.152 138.136,141.851 138.525 M271.303 138.574 C 271.303 138.682,271.429 138.989,271.582 139.258 C 271.736 139.526,271.861 139.658,271.861 139.551 C 271.861 139.443,271.736 139.136,271.582 138.867 C 271.429 138.599,271.303 138.467,271.303 138.574 M173.907 140.067 C 173.537 140.484,173.538 140.485,173.975 140.256 C 174.216 140.129,174.414 139.941,174.414 139.837 C 174.414 139.559,174.321 139.602,173.907 140.067 M238.867 139.837 C 238.867 139.941,239.065 140.129,239.307 140.256 C 239.744 140.485,239.744 140.484,239.374 140.067 C 238.961 139.602,238.867 139.559,238.867 139.837 M140.341 141.421 C 139.623 143.021,139.805 143.078,140.584 141.498 C 140.927 140.803,141.132 140.234,141.040 140.234 C 140.949 140.234,140.634 140.768,140.341 141.421 M171.770 142.041 L 170.801 143.066 171.826 142.097 C 172.779 141.197,172.941 141.016,172.795 141.016 C 172.764 141.016,172.303 141.477,171.770 142.041 M241.309 141.992 C 241.838 142.529,242.314 142.969,242.368 142.969 C 242.422 142.969,242.033 142.529,241.504 141.992 C 240.975 141.455,240.498 141.016,240.444 141.016 C 240.391 141.016,240.780 141.455,241.309 141.992 M166.934 147.773 C 166.741 148.031,166.654 148.242,166.741 148.242 C 166.911 148.242,167.450 147.461,167.348 147.363 C 167.313 147.331,167.127 147.515,166.934 147.773 M245.905 147.390 C 245.913 147.629,246.463 148.328,246.563 148.228 C 246.609 148.182,246.478 147.937,246.272 147.683 C 246.067 147.430,245.901 147.298,245.905 147.390 M137.489 148.369 C 137.380 148.654,137.320 148.973,137.355 149.078 C 137.390 149.183,137.517 148.950,137.637 148.560 C 137.888 147.741,137.780 147.603,137.489 148.369 M136.708 150.732 C 136.600 151.028,136.473 151.379,136.426 151.514 C 136.379 151.648,136.407 151.758,136.489 151.758 C 136.571 151.758,136.732 151.406,136.847 150.977 C 137.085 150.083,137.000 149.933,136.708 150.732 M164.293 152.246 C 164.171 152.515,164.103 152.734,164.142 152.734 C 164.181 152.734,164.357 152.515,164.533 152.246 C 164.709 151.978,164.777 151.758,164.684 151.758 C 164.592 151.758,164.416 151.978,164.293 152.246 M248.748 152.246 C 248.924 152.515,249.100 152.734,249.139 152.734 C 249.178 152.734,249.110 152.515,248.988 152.246 C 248.866 151.978,248.690 151.758,248.597 151.758 C 248.504 151.758,248.572 151.978,248.748 152.246 M278.320 158.875 C 278.320 159.137,278.392 159.396,278.480 159.451 C 278.568 159.505,278.602 159.291,278.556 158.974 C 278.453 158.276,278.320 158.220,278.320 158.875 M161.660 158.936 C 161.508 159.205,161.295 160.255,161.416 160.134 C 161.561 159.988,161.916 158.789,161.814 158.789 C 161.774 158.789,161.705 158.855,161.660 158.936 M251.560 159.366 C 251.662 159.722,251.800 160.068,251.865 160.134 C 252.049 160.317,251.730 159.107,251.541 158.900 C 251.449 158.800,251.458 159.009,251.560 159.366 M160.202 166.797 C 160.202 167.173,160.242 167.327,160.291 167.139 C 160.340 166.951,160.340 166.643,160.291 166.455 C 160.242 166.267,160.202 166.421,160.202 166.797 M160.009 210.107 C 159.982 233.230,160.027 252.148,160.107 252.148 C 160.240 252.148,160.239 223.547,160.106 183.203 C 160.079 174.878,160.035 186.985,160.009 210.107 M253.197 170.117 C 253.197 171.245,253.230 171.707,253.269 171.143 C 253.308 170.579,253.308 169.656,253.269 169.092 C 253.230 168.528,253.197 168.989,253.197 170.117 M133.741 210.938 C 133.714 233.496,133.757 251.953,133.838 251.953 C 133.918 251.953,133.984 233.496,133.984 210.938 C 133.984 188.379,133.941 169.922,133.888 169.922 C 133.834 169.922,133.768 188.379,133.741 210.938 M251.866 179.796 C 251.793 180.188,251.772 180.548,251.819 180.595 C 251.867 180.643,251.966 180.362,252.040 179.970 C 252.113 179.578,252.135 179.218,252.087 179.170 C 252.039 179.122,251.940 179.404,251.866 179.796 M278.627 179.604 C 278.555 179.890,278.534 180.162,278.580 180.208 C 278.626 180.254,278.723 180.057,278.795 179.771 C 278.866 179.485,278.888 179.213,278.842 179.167 C 278.796 179.121,278.699 179.318,278.627 179.604 M251.400 181.435 C 251.286 181.763,251.234 182.031,251.285 182.031 C 251.416 182.031,251.785 181.017,251.688 180.920 C 251.644 180.876,251.514 181.108,251.400 181.435 M278.347 181.381 C 278.332 181.613,278.270 181.965,278.208 182.162 C 278.102 182.500,278.107 182.501,278.318 182.172 C 278.441 181.981,278.504 181.629,278.457 181.391 C 278.374 180.957,278.373 180.957,278.347 181.381 M250.060 185.156 C 249.938 185.479,249.900 185.742,249.974 185.742 C 250.049 185.742,250.209 185.479,250.331 185.156 C 250.452 184.834,250.491 184.570,250.416 184.570 C 250.342 184.570,250.181 184.834,250.060 185.156 M248.730 188.086 C 248.564 188.408,248.471 188.672,248.525 188.672 C 248.579 188.672,248.759 188.408,248.926 188.086 C 249.092 187.764,249.185 187.500,249.131 187.500 C 249.077 187.500,248.897 187.764,248.730 188.086 M275.725 191.406 C 275.668 191.621,275.692 191.797,275.777 191.797 C 275.862 191.797,275.977 191.621,276.033 191.406 C 276.089 191.191,276.066 191.016,275.981 191.016 C 275.896 191.016,275.781 191.191,275.725 191.406 M246.139 192.383 C 246.005 192.598,245.963 192.773,246.045 192.773 C 246.128 192.773,246.305 192.598,246.439 192.383 C 246.573 192.168,246.616 191.992,246.533 191.992 C 246.451 191.992,246.273 192.168,246.139 192.383 M274.436 194.971 C 274.242 195.551,274.249 195.573,274.514 195.226 C 274.674 195.018,274.805 194.732,274.805 194.592 C 274.805 194.156,274.657 194.308,274.436 194.971 M241.786 197.803 L 241.113 198.535 241.846 197.862 C 242.527 197.236,242.668 197.070,242.519 197.070 C 242.486 197.070,242.157 197.400,241.786 197.803 M239.746 199.728 L 238.965 200.428 239.795 199.807 C 240.509 199.272,240.767 199.015,240.576 199.026 C 240.549 199.028,240.176 199.344,239.746 199.728 M192.285 200.391 C 191.473 200.597,192.272 200.606,193.262 200.402 C 193.919 200.266,193.950 200.240,193.457 200.241 C 193.135 200.241,192.607 200.309,192.285 200.391 M271.614 200.928 L 271.281 201.660 271.675 201.199 C 271.893 200.945,272.070 200.616,272.070 200.467 C 272.070 200.041,271.973 200.140,271.614 200.928 M234.375 203.728 C 234.051 203.994,234.018 204.060,234.277 203.926 C 234.914 203.597,235.268 203.326,235.059 203.328 C 234.951 203.328,234.644 203.509,234.375 203.728 M178.992 206.088 L 178.418 206.707 179.047 206.274 C 179.720 205.811,180.012 205.469,179.736 205.469 C 179.642 205.469,179.307 205.747,178.992 206.088 M210.664 207.471 C 211.298 208.142,211.904 208.724,212.012 208.763 C 212.119 208.803,211.638 208.253,210.943 207.543 C 210.248 206.832,209.641 206.250,209.595 206.250 C 209.549 206.250,210.030 206.799,210.664 207.471 M218.750 209.180 C 218.348 209.309,218.331 209.339,218.652 209.353 C 218.867 209.362,219.175 209.284,219.336 209.180 C 219.678 208.959,219.441 208.959,218.750 209.180 M214.893 209.515 C 215.188 209.560,215.671 209.560,215.967 209.515 C 216.262 209.470,216.021 209.434,215.430 209.434 C 214.839 209.434,214.597 209.470,214.893 209.515 M264.057 212.158 C 263.574 212.742,263.443 212.973,263.752 212.695 C 264.289 212.214,265.142 211.133,264.985 211.133 C 264.941 211.133,264.523 211.594,264.057 212.158 M256.641 219.727 C 256.372 219.937,256.249 220.110,256.366 220.113 C 256.484 220.115,256.739 219.941,256.934 219.727 C 257.379 219.234,257.270 219.234,256.641 219.727 M171.693 226.286 C 171.701 226.599,171.785 227.031,171.880 227.246 C 171.996 227.507,172.014 227.345,171.937 226.758 C 171.800 225.723,171.674 225.478,171.693 226.286 M246.338 226.996 C 246.096 227.113,245.898 227.286,245.898 227.380 C 245.898 227.581,246.601 227.239,246.778 226.952 C 246.921 226.721,246.905 226.723,246.338 226.996 M243.799 228.363 C 243.194 228.655,243.241 228.952,243.848 228.675 C 244.116 228.553,244.336 228.379,244.336 228.289 C 244.336 228.096,244.359 228.093,243.799 228.363 M241.607 229.485 C 241.449 229.584,241.368 229.714,241.426 229.773 C 241.485 229.831,241.702 229.751,241.909 229.594 C 242.321 229.282,242.070 229.192,241.607 229.485 M172.678 230.473 C 172.803 230.847,172.983 231.238,173.079 231.343 C 173.175 231.448,173.151 231.228,173.026 230.855 C 172.901 230.481,172.720 230.090,172.624 229.985 C 172.529 229.880,172.553 230.100,172.678 230.473 M240.186 230.110 C 239.890 230.218,239.648 230.389,239.648 230.490 C 239.648 230.591,239.912 230.538,240.234 230.371 C 240.687 230.137,241.063 229.806,240.771 229.898 C 240.745 229.907,240.481 230.002,240.186 230.110 M237.391 231.338 C 237.025 231.611,237.027 231.617,237.454 231.510 C 237.698 231.448,237.944 231.321,238.003 231.226 C 238.168 230.959,237.811 231.024,237.391 231.338 M230.273 233.594 C 229.871 233.723,229.854 233.753,230.176 233.767 C 230.391 233.776,230.698 233.698,230.859 233.594 C 231.202 233.373,230.964 233.373,230.273 233.594 M220.703 235.352 L 219.824 235.488 220.605 235.504 C 221.035 235.512,221.563 235.444,221.777 235.352 C 222.230 235.157,221.954 235.157,220.703 235.352 M211.023 238.330 L 210.449 238.965 211.084 238.391 C 211.676 237.856,211.809 237.695,211.658 237.695 C 211.624 237.695,211.338 237.981,211.023 238.330 M177.148 238.147 C 177.148 238.181,177.434 238.466,177.783 238.782 L 178.418 239.355 177.844 238.721 C 177.310 238.129,177.148 237.996,177.148 238.147 M207.704 241.293 C 207.495 241.445,207.377 241.621,207.440 241.684 C 207.503 241.748,207.714 241.623,207.909 241.407 C 208.324 240.949,208.239 240.901,207.704 241.293 M201.367 244.540 C 200.239 244.953,199.410 245.296,199.524 245.302 C 199.864 245.319,203.189 244.154,203.400 243.944 C 203.647 243.696,203.762 243.663,201.367 244.540 M188.281 244.963 C 188.335 245.016,188.685 245.163,189.058 245.289 C 189.432 245.415,189.651 245.434,189.546 245.332 C 189.441 245.229,189.092 245.082,188.770 245.006 C 188.447 244.929,188.228 244.910,188.281 244.963 M132.129 253.039 C 131.765 253.348,131.697 253.462,131.950 253.341 C 132.313 253.167,132.971 252.538,132.788 252.540 C 132.748 252.541,132.451 252.765,132.129 253.039 M161.312 252.997 C 161.592 253.345,162.305 253.802,162.305 253.633 C 162.305 253.583,162.019 253.342,161.670 253.097 C 161.220 252.781,161.116 252.752,161.312 252.997 M164.435 256.216 C 164.553 256.437,164.747 256.678,164.864 256.751 C 165.017 256.846,165.017 256.769,164.862 256.480 C 164.743 256.258,164.550 256.017,164.433 255.944 C 164.279 255.850,164.280 255.927,164.435 256.216 M124.924 264.184 C 124.751 264.693,124.616 265.203,124.624 265.318 C 124.631 265.433,124.807 265.051,125.014 264.469 C 125.220 263.887,125.356 263.376,125.314 263.335 C 125.273 263.294,125.098 263.676,124.924 264.184 M124.069 270.313 C 124.069 270.688,124.109 270.842,124.158 270.654 C 124.207 270.466,124.207 270.159,124.158 269.971 C 124.109 269.783,124.069 269.937,124.069 270.313 M124.077 271.875 C 124.077 272.358,124.115 272.556,124.161 272.314 C 124.208 272.073,124.208 271.677,124.161 271.436 C 124.115 271.194,124.077 271.392,124.077 271.875 M169.381 272.656 C 169.381 273.032,169.421 273.186,169.471 272.998 C 169.520 272.810,169.520 272.502,169.471 272.314 C 169.421 272.126,169.381 272.280,169.381 272.656 M168.862 275.698 C 168.790 275.984,168.769 276.256,168.815 276.302 C 168.861 276.348,168.957 276.151,169.029 275.865 C 169.101 275.579,169.122 275.307,169.076 275.261 C 169.030 275.215,168.933 275.411,168.862 275.698 M168.423 277.360 C 168.305 277.799,168.275 278.084,168.356 277.995 C 168.592 277.731,168.938 276.563,168.780 276.563 C 168.701 276.563,168.540 276.921,168.423 277.360 M126.563 280.761 C 126.563 280.975,127.528 282.617,127.653 282.617 C 127.707 282.617,127.512 282.200,127.220 281.689 C 126.590 280.590,126.563 280.551,126.563 280.761 M166.656 281.494 C 166.274 281.988,166.144 282.291,166.375 282.148 C 166.606 282.005,167.069 281.250,166.925 281.250 C 166.881 281.250,166.760 281.360,166.656 281.494 M129.898 285.645 C 130.355 286.332,130.946 286.944,131.348 287.145 C 131.608 287.274,131.564 287.187,131.216 286.883 C 130.929 286.631,130.457 286.162,130.167 285.840 C 129.876 285.518,129.755 285.430,129.898 285.645 M163.075 286.279 L 162.402 287.012 163.135 286.339 C 163.816 285.712,163.957 285.547,163.808 285.547 C 163.775 285.547,163.446 285.876,163.075 286.279 M157.981 290.245 C 157.544 290.626,157.542 290.636,157.948 290.440 C 158.184 290.326,158.431 290.145,158.497 290.038 C 158.689 289.727,158.478 289.812,157.981 290.245 M153.613 292.112 C 152.837 292.385,152.837 292.386,153.510 292.284 C 153.882 292.227,154.273 292.094,154.379 291.989 C 154.605 291.762,154.613 291.761,153.613 292.112 M148.682 293.103 C 148.870 293.153,149.177 293.153,149.365 293.103 C 149.553 293.054,149.399 293.014,149.023 293.014 C 148.647 293.014,148.494 293.054,148.682 293.103 " stroke="none" fill="#fc8c7c" fill-rule="evenodd"></path><path id="path2" d="M254.980 119.069 C 255.088 119.164,255.483 119.504,255.859 119.826 L 256.542 120.410 256.054 119.855 C 255.786 119.550,255.391 119.209,255.176 119.099 C 254.961 118.988,254.873 118.975,254.980 119.069 M202.881 130.810 C 204.949 130.842,208.333 130.842,210.400 130.810 C 212.468 130.779,210.776 130.753,206.641 130.753 C 202.505 130.753,200.813 130.779,202.881 130.810 M138.899 144.637 C 138.572 145.355,138.634 145.509,138.988 144.856 C 139.153 144.551,139.252 144.265,139.207 144.220 C 139.162 144.176,139.024 144.363,138.899 144.637 M194.775 200.330 C 194.963 200.379,195.271 200.379,195.459 200.330 C 195.647 200.281,195.493 200.241,195.117 200.241 C 194.741 200.241,194.587 200.281,194.775 200.330 M218.408 235.682 C 218.596 235.731,218.904 235.731,219.092 235.682 C 219.280 235.632,219.126 235.592,218.750 235.592 C 218.374 235.592,218.220 235.632,218.408 235.682 M130.945 254.150 L 130.371 254.785 131.006 254.212 C 131.355 253.896,131.641 253.610,131.641 253.577 C 131.641 253.426,131.479 253.559,130.945 254.150 M126.503 260.061 C 126.324 260.436,126.218 260.742,126.268 260.742 C 126.401 260.742,126.994 259.546,126.905 259.457 C 126.862 259.415,126.682 259.686,126.503 260.061 " stroke="none" fill="#fc847c" fill-rule="evenodd"></path><path id="path3" d="" stroke="none" fill="#fc9488" fill-rule="evenodd"></path><path id="path4" d="" stroke="none" fill="#fc9488" fill-rule="evenodd"></path></g></svg>